<svg xmlns="http://www.w3.org/2000/svg" width="256" height="256"><path fill="#1976D2" fill-opacity=".016" fill-rule="evenodd" d="M0 128.004v128.004l128.25-.254 128.25-.254.254-127.75L257.008 0H0zm.485.496c0 70.4.119 99.053.265 63.672s.146-92.98 0-128S.485 58.1.485 128.5"/><path fill="#1976D2" fill-opacity=".067" fill-rule="evenodd" d="M156.624 26.452c-.911 1.389-4.011 3.876-6.89 5.527-9.119 5.23-19.274 3.508-23.542-3.994-2.138-3.757-4.76-3.866-5.647-.235C118.426 36.427 110.442 42 100.128 42c-5.711 0-6.482-.265-9.089-3.118-3.716-4.069-5.252-3.067-4.512 2.942.446 3.627.134 5.379-1.391 7.81-5.738 9.149-20.895 14.15-28.547 9.421-3.955-2.445-6.832-1.314-4.839 1.901 2.339 3.773 1.551 9.632-1.81 13.46-5.495 6.258-17.969 9.382-24.294 6.083-1.57-.819-3.257-1.239-3.75-.935-1.75 1.082-.857 3.405 1.854 4.825 6.398 3.351 15.491 16.958 16.791 25.127.62 3.89.529 4.057-2.865 5.284-4.758 1.721-11.442 8.416-13.862 13.887-2.665 6.025-2.697 16.528-.069 22.469 2.114 4.78 7.948 10.478 11.687 11.416 2.007.504 2.899 2.155 5.488 10.152 1.7 5.252 4.893 12.814 7.095 16.803 6.729 12.19 22.234 28.487 31.789 33.413 8.77 4.522 25.631 7.051 47.039 7.056 18.838.004 29.797-1.602 44.051-6.457 21.71-7.394 37.382-24.34 46.07-49.816 2.271-6.659 3.219-8.153 6.594-10.39 8.465-5.609 11.596-9.637 12.84-16.513 1.542-8.522-4.218-18.594-13.867-24.249-4.002-2.345-4.37-2.864-3.554-5.01 2.349-6.179 7.638-15.595 11.693-20.816 5.384-6.931 4.299-8.159-4.3-4.868-9.952 3.808-14.172 2.287-16.377-5.904-.83-3.083-.808-6.021.088-11.578.661-4.095.899-7.749.528-8.119-.37-.371-2.796-.063-5.391.683-8.871 2.551-11.849 2.501-14.594-.244-3.345-3.345-4.983-9.902-4.247-17.001.724-6.982-.146-7.626-6.44-4.771-2.44 1.107-6.356 2.023-8.702 2.035-3.741.019-4.505-.373-6.221-3.195-1.076-1.77-2.204-5.258-2.506-7.75-1.411-11.657-2.918-14.109-5.884-9.581M123 36.025c0 1.083 4.969 3.339 5.714 2.594.24-.24-.497-.733-1.639-1.095S125 36.446 125 35.933s-.45-.933-1-.933-1 .461-1 1.025m55.711 16.974c-.632 2.415.829 3.641 1.684 1.413.85-2.215.753-3.412-.278-3.412-.486 0-1.119.9-1.406 1.999m23.562 22.023c-.083 1.112.271 1.76.788 1.441 1.136-.703 1.258-3.463.152-3.463-.433 0-.856.91-.94 2.022M215 101c-3.903.607-4.066.72-1.224.85l3.275.15-1.586 3.068c-2.623 5.071-1.154 5.364 2.303.458 3.347-4.748 3.755-5.631 2.482-5.376-.412.083-2.775.465-5.25.85M96.197 126.011c3.107 4.998 4.552 5.923 3.353 2.147-.802-2.526-4.413-7.158-5.581-7.158-.488 0 .515 2.255 2.228 5.011m93.351 2.082c.88 1.701 1.808 2.884 2.063 2.629.681-.681-1.783-5.722-2.797-5.722-.476 0-.146 1.392.734 3.093m36.914 9.145c-1.084 2.825-.072 8.262 1.538 8.262 1.093 0 1.467-1.038 1.38-3.82-.136-4.301-1.926-7.027-2.918-4.442m.788 11.482c-.687.246-1.25 1.181-1.25 2.078 0 1.484.152 1.479 1.69-.06 1.808-1.808 1.603-2.747-.44-2.018m-25.783 36.219c-3.749 7.991-4.044 8.964-2.775 9.177 1.229.206 8.308-12.402 8.308-14.797 0-4.21-1.757-2.425-5.533 5.62m-69.699 37.786c1.797.222 4.497.218 6-.01 1.503-.229.032-.411-3.268-.405s-4.529.192-2.732.415"/><path fill="#1976D2" fill-opacity=".406" fill-rule="evenodd" d="M120.975 27.565c-.536 1.411-.975 2.905-.975 3.32s-1.602 2.627-3.56 4.914C112.771 40.086 106.031 43 99.786 43 95.802 43 90 40.397 90 38.61c0-2.026-2.045-3.155-2.978-1.645-.416.672-.54 3.13-.277 5.463.624 5.536-1.539 9.662-6.996 13.345-8.819 5.951-17.411 7.312-23.488 3.722-3.983-2.353-4.791-1.629-3.282 2.941.648 1.964.876 4.946.507 6.627-.934 4.253-6.406 9.381-12.072 11.312-5.289 1.802-14.952 2.182-15.914.625-.34-.55-1.266-1-2.059-1-2.716 0-1.44 2.735 2.489 5.335 6.529 4.32 15.04 18.676 15.06 25.402.009 2.798-.498 3.448-3.74 4.803-4.749 1.984-8.701 5.729-12.089 11.46-2.32 3.923-2.661 5.591-2.661 13 0 7.475.332 9.065 2.754 13.185 2.951 5.02 6.785 8.285 10.962 9.333 2.011.505 2.745 1.474 3.269 4.316 1.044 5.665 6.184 17.925 10.76 25.666 5.061 8.56 21.006 25.23 27.528 28.78 11.356 6.18 31.785 9.326 54.668 8.417 15.388-.611 23.682-1.931 36.059-5.739 11.708-3.602 18.254-7.672 28.047-17.437 7.267-7.246 9.953-10.791 13.656-18.021 2.535-4.95 5.592-12.15 6.793-16 2.083-6.673 2.469-7.188 8.273-11.018 8.146-5.376 11.03-10.587 10.525-19.017-.454-7.575-4.42-13.558-12.291-18.542-2.974-1.882-5.429-3.94-5.455-4.571-.094-2.248 8.881-18.922 12.387-23.011 5.91-6.895 4.917-7.719-4.627-3.841-7.824 3.179-9.324 3.138-12.811-.35-3.629-3.628-4.577-8.712-3.288-17.625.558-3.864.663-7.417.232-7.896-.437-.486-2.883-.155-5.54.75-4.926 1.678-10.049 2.077-12.856 1-3.058-1.174-4.943-6.612-5.502-15.879-.315-5.227-.962-8.9-1.543-8.762-.55.131-3.763 1.238-7.14 2.461-5.076 1.838-6.582 2.021-8.697 1.057-3.851-1.755-5.716-5.386-7.001-13.634-.639-4.103-1.508-7.805-1.93-8.226-.423-.421-2.448.843-4.5 2.809-4.511 4.321-8.695 6.526-13.993 7.373-5.528.884-12.212-2.181-15.16-6.951-2.654-4.293-3.786-4.529-5.104-1.062m30.775 8.007c-3.417 1.854-3.555 2.847-.281 2.025 2.037-.511 2.743-.088 4.042 2.425 2.148 4.152 3.465 2.928 2.15-1.999-1.176-4.404-1.819-4.671-5.911-2.451m-29.75.306c0 1.319 2.17 2.767 5.25 3.503 3.142.751 3.805-.911.75-1.881-1.1-.349-2-1.054-2-1.567s-.9-.933-2-.933-2 .395-2 .878M92 47.393c0 .971 2.817 1.336 4.091.53 1.025-.65.66-.897-1.341-.908-1.513-.008-2.75.162-2.75.378m84 4.094c-2.271 1.31-2.313 1.445-.457 1.478 1.415.024 2.337 1.014 3 3.219 1.468 4.885 2.961 4.411 2.923-.928-.039-5.304-1.299-6.173-5.466-3.769m-57.509 7.997c-14.318 3.864-32.724 12.999-43.2 21.438-13.537 10.906-23.793 28.762-28.77 50.091-2.462 10.552-2.471 30.604-.017 38.012 4.946 14.928 10.731 24.624 21.252 35.617 10.925 11.417 17.601 14.823 33.744 17.216 13.635 2.023 16.177 2.116 33 1.218 17.11-.913 25.518-2.492 37.853-7.107 21.221-7.94 39.024-32.938 41.827-58.73 1.901-17.502-1.958-33.286-12.48-51.039-7.157-12.076-15.19-21.187-26.696-30.28-18.898-14.934-25.997-17.962-41.859-17.854-5.305.036-11.899.674-14.654 1.418M59.5 67c-.34.55.11 1 1 1s1.34-.45 1-1-.79-1-1-1-.66.45-1 1M200 73.216c-2.06.897-2.192 1.163-.75 1.51 1.162.279 1.75 1.384 1.75 3.288 0 4.357 1.76 4.514 2.94.262 1.837-6.615 1.278-7.333-3.94-5.06m10 27.951c0 .485 1.338 1.151 2.973 1.478 2.797.559 2.886.719 1.5 2.697-1.678 2.396-1.958 5.658-.486 5.658.544 0 2.1-1.762 3.46-3.916s2.94-4.205 3.512-4.559c2.481-1.533.62-2.406-4.959-2.327-3.3.047-6 .483-6 .969M83.365 115.919c-4.878 2.974-6.703 8.984-6.164 20.292.96 20.152 11.186 30.534 21.315 21.641 5.389-4.732 6.877-8.29 6.839-16.352-.047-9.844-5.41-21.259-12.041-25.632-3.577-2.358-6.019-2.345-9.949.051m92.859.131c-4.867 1.935-9.057 18.249-7.209 28.071 1.647 8.756 2.914 11.609 6.581 14.829 5.091 4.47 10.338 4.042 16.241-1.325 5.388-4.898 7.057-16.501 3.783-26.296-3.474-10.395-12.935-17.847-19.396-15.279m-139.905 6.834c-9.215 6.675-10.996 21.405-3.644 30.141 4.195 4.986 5.012 4.028 5.782-6.775.66-9.261 2.557-20.696 4.064-24.5 1.058-2.672-1.625-2.181-6.202 1.134m59.336 3.366c3.638 5.426 5.348 6.892 5.341 4.583-.004-1.621-3.812-8.048-5.372-9.068-3.135-2.048-3.122-.218.031 4.485M187 123.565c0 1.137 5.04 10.341 5.981 10.923 1.461.903 1.284-.002-1.073-5.481-1.151-2.675-2.726-5.107-3.5-5.404-.775-.297-1.408-.314-1.408-.038m32.679 10.207c.791 3.734 1.291 10.4 1.123 14.98-.166 4.539-.039 8.252.281 8.25.321-.001 2.266-1.465 4.322-3.252 3.941-3.427 5.55-8.808 4.219-14.113-.742-2.954-4.69-7.836-8.576-10.603l-2.794-1.99zM72.547 180.924c-1.879 3.041 23.787 14.669 42.453 19.231 8.779 2.147 30.738 1.598 40.5-1.012 10.061-2.69 30.5-12.477 30.5-14.605 0-2.26-1.207-1.959-10.126 2.525-13.553 6.815-24.762 10.005-37.374 10.638-6.43.322-14.116.065-18.5-.62-10.079-1.574-26.287-7.102-36.91-12.589-9.394-4.851-9.688-4.951-10.543-3.568"/><path fill="#1976D2" fill-opacity=".986" fill-rule="evenodd" d="M156.695 27.543c-.993 1.364-4.143 3.82-7 5.459-9.053 5.192-18.172 3.682-23.809-3.942-2.696-3.647-4.886-3.965-4.886-.71 0 3.623-5.329 10.147-10.226 12.517C107.71 42.35 104.455 43 100.085 43c-5.691 0-6.546-.282-9.085-3-1.541-1.65-3.063-3-3.382-3s-.313 1.949.014 4.331c.717 5.232-.995 9.024-6.094 13.502-5.219 4.581-9.153 6.322-15.619 6.908-4.748.431-6.371.143-9.259-1.642-3.537-2.186-5.299-1.723-3.609.949.505.798.925 3.424.934 5.834.013 3.832-.519 4.915-4.243 8.639-6.433 6.433-17.755 9.286-23.975 6.041-1.737-.906-2.958-1.062-3.35-.427-.34.549-.46 1.115-.267 1.258.192.143 2.044 1.278 4.114 2.524 4.303 2.587 8.483 8.256 12.765 17.307 4.221 8.922 4.005 11.214-1.279 13.606-5.256 2.379-11.103 8.37-13.342 13.67-1.063 2.514-1.681 6.623-1.665 11.063.038 10.556 4.125 17.395 12.481 20.886 3.071 1.283 3.882 2.265 4.789 5.798 3.51 13.681 10.212 26.255 20.047 37.615C76.964 224.388 89.7 229 126.718 229c44.519 0 68.945-12.501 84.373-43.182 2.124-4.225 4.633-10.453 5.575-13.841 1.585-5.701 2.138-6.448 7.43-10.042 6.891-4.68 9.541-7.874 10.987-13.244 2.499-9.278-2.813-19.613-13.032-25.358-4.087-2.297-4.913-3.202-4.408-4.83 1.46-4.714 8.483-17.482 12.203-22.189 2.218-2.806 3.787-5.348 3.487-5.648-.301-.301-3.03.552-6.064 1.894-7.12 3.149-11.634 3.166-14.745.055-3.725-3.725-4.946-9.835-3.598-17.999.626-3.787.893-7.131.594-7.43s-2.941.212-5.87 1.135c-7.572 2.387-10.331 2.152-13.646-1.163-3.526-3.526-5.348-9.995-4.772-16.943.242-2.915.112-5.502-.288-5.749s-2.81.472-5.357 1.599c-2.916 1.289-6.184 1.934-8.826 1.741-3.473-.253-4.581-.879-6.428-3.629-1.228-1.828-2.5-5.428-2.827-8-1.588-12.499-1.766-12.818-4.811-8.634m-34.76 6.078c-.771 1.441-3.339 4.325-5.706 6.409-6.387 5.621-14.731 7.154-23.979 4.405-1.847-.548-2.25-.28-2.25 1.498 0 9.462-18.883 21.126-29.468 18.203l-3.297-.91-.503 4.462c-.941 8.35-10.348 16.088-20.776 17.09l-4.854.467 2.865 3.627c4.312 5.461 9.114 15.311 9.74 19.98.306 2.282.864 4.148 1.241 4.148.376 0 1.684-2.413 2.906-5.362C53.239 94.646 65.799 79.602 78 71.529c29.553-19.554 59.439-24.979 80.028-14.525 9.574 4.86 24.448 16.383 34.788 26.951 6.03 6.163 14.784 19.052 19.42 28.593 1.189 2.449 2.41 4.444 2.713 4.435s1.595-2.43 2.872-5.38 3.874-7.722 5.773-10.606c3.208-4.871 3.291-5.19 1.179-4.506-6.502 2.106-9.399 1.777-13.12-1.491-4.594-4.033-6.087-9.242-5.253-18.322.621-6.749.603-6.814-1.636-6.095-8.262 2.65-13.883 2.153-17.209-1.522-2.707-2.991-4.463-8.993-4.511-15.418-.039-5.16-.252-5.776-1.794-5.18-.963.373-3.896 1.175-6.519 1.783-8.8 2.041-14.438-3.222-15.527-14.496-.478-4.956-1.906-6.019-4.265-3.177-1.915 2.308-8.188 5.283-12.639 5.995-5.305.848-11.479-.999-15.315-4.582-1.758-1.642-3.298-2.986-3.422-2.986s-.856 1.179-1.628 2.621M120.5 58.417c-13.837 3.188-31.281 11.507-43.635 20.809-13.312 10.025-23.544 26.118-29.421 46.274-2.005 6.875-2.754 12.121-3.175 22.219-.658 15.805.399 20.635 7.877 35.995 4.204 8.636 6.442 11.76 14.492 20.226 16.034 16.863 24.484 19.594 60.362 19.504 21.163-.054 23.094-.216 32.5-2.74 15.289-4.103 23.453-8.576 33.045-18.106 8.985-8.926 14.146-17.191 18.795-30.098 2.328-6.463 2.981-10.216 3.399-19.537.538-11.973-.136-17.094-3.839-29.205-2.337-7.642-12.236-24.74-18.898-32.64-9.045-10.728-30.883-27.397-40.913-31.231-7.124-2.723-22.038-3.439-30.589-1.47m-37.283 58.144c-4.227 2.96-5.659 7.245-5.659 16.939 0 10.536 2.135 17.941 6.656 23.091 2.547 2.9 3.644 3.409 7.356 3.409 8.481 0 14.214-9.245 13.141-21.191C103.683 127.354 95.369 115 88.689 115c-1.784 0-4.247.702-5.472 1.561m91.547.818c-5.071 5.071-7.147 26.558-3.379 34.969 2.708 6.045 6.136 8.652 11.379 8.652 3.838 0 5.005-.534 8.244-3.773 5.951-5.951 7.566-15.176 4.34-24.799-1.877-5.598-5.497-11.108-9.072-13.804-3.446-2.6-9.502-3.255-11.512-1.245M37.79 121.256c-11.166 6.76-13.822 23.256-5.178 32.157 5.528 5.691 5.997 5.121 6.718-8.163.561-10.342 2.026-18.879 4.206-24.5.941-2.429-1.211-2.239-5.746.506m54.377-.506c3.493 7.842 9.833 15.064 9.833 11.2 0-1.664-3.041-7.239-5.291-9.7-1.905-2.083-5.301-3.205-4.542-1.5M186 122.525c0 1.519 7.172 14.475 8.013 14.475a.986.986 0 0 0 .987-.98c0-2.104-3.409-9.636-5.326-11.77-1.885-2.097-3.674-2.937-3.674-1.725m32.407 7.725c1.8 8.901 2.534 17.397 1.941 22.446l-.658 5.6 3.25-1.898c9.6-5.606 10.435-15.8 2.003-24.457-5.711-5.863-7.472-6.319-6.536-1.691M73 180.932c0 3.382 21.103 13.087 38.521 17.714 8.741 2.322 33.23 2.609 40.979.48 13.418-3.686 32.5-11.987 32.5-14.139 0-1.594-1.235-1.209-9.926 3.096-20.122 9.966-38.126 12.952-56.776 9.414-14.012-2.658-33.458-9.988-41.452-15.625-2.969-2.094-3.846-2.308-3.846-.94"/></svg>